<svg width="100" height="40" viewBox="0 0 100 40" fill="none" xmlns="http://www.w3.org/2000/svg">
<path d="M30.1598 17.1672L30.2067 17.3079L36.398 14.7751C37.8052 14.2122 38.4618 12.5705 37.899 11.1634L37.8052 11.0227L31.6138 13.5555C30.2536 14.1184 29.55 15.76 30.1598 17.1672Z" fill="white"/>
<path d="M28.2835 13.4617L28.4242 13.6024L33.1616 8.86507C34.2404 7.78627 34.2404 6.05081 33.1616 4.97201L33.0209 4.8313L28.2835 9.52173C27.2047 10.6005 27.2047 12.3829 28.2835 13.4617Z" fill="white"/>
<path d="M60.4599 23.2178H56.6138V21.3885H60.3661V19.7938H56.6138V18.1052H60.4599V16.5105H54.8783V24.8126H60.4599V23.2178Z" fill="white"/>
<path d="M60.3192 12.1016H56.8014V5.39429H54.9252V13.7433H60.3192V12.1016Z" fill="white"/>
<path d="M25.1879 10.7881L25.3286 10.835L27.9084 4.64364C28.4712 3.23652 27.8146 1.64177 26.4074 1.03201L26.2667 0.985107L23.687 7.17648C23.1241 8.58361 23.7808 10.1784 25.1879 10.7881Z" fill="white"/>
<path d="M9.80327 22.7489L9.75636 22.5613L3.565 25.0941C2.15787 25.657 1.50121 27.2986 2.06406 28.7057L2.11096 28.7996L8.30233 26.3136C9.70946 25.7977 10.3661 24.156 9.80327 22.7489Z" fill="white"/>
<path d="M11.6325 26.4076L11.4918 26.2668L6.75447 31.0511C5.67567 32.1299 5.67567 33.8653 6.75447 34.9441L6.89519 35.0849L11.6325 30.3475C12.7113 29.2687 12.7113 27.4864 11.6325 26.4076Z" fill="white"/>
<path d="M63.3211 5.39429H61.4449V13.7433H63.3211L63.3211 5.39429Z" fill="white"/>
<path d="M9.56874 11.6327C10.6475 12.7115 12.383 12.7115 13.4618 11.6327L13.6025 11.492L8.86518 6.75466C7.78638 5.67586 6.05092 5.67586 4.97212 6.75466L4.83141 6.89537L9.56874 11.6327Z" fill="white"/>
<path d="M9.47492 18.6683V18.4807H2.7676C1.26666 18.4807 0.000244215 19.7002 0.000244149 21.2481L0.000244141 21.4357H6.70756C8.2554 21.4357 9.47492 20.1693 9.47492 18.6683Z" fill="white"/>
<path d="M8.25537 16.4169C8.6306 16.4169 8.95893 16.3231 9.28726 16.2293C9.94392 15.9479 10.5068 15.4319 10.7882 14.7284L10.8351 14.5876L4.64374 12.0079C3.23661 11.4451 1.64186 12.1017 1.03211 13.5088V13.6027L7.22347 16.1824C7.55181 16.3231 7.92704 16.4169 8.25537 16.4169Z" fill="white"/>
<path d="M78.1428 12.3361H81.8014L82.3173 13.7433H84.3342L81.0978 5.44119V5.39429H78.7995L75.5631 13.7433H77.6269L78.1428 12.3361ZM79.9721 7.12975L81.2854 10.7414H78.6588L79.9721 7.12975Z" fill="white"/>
<path d="M97.6081 12.1485H93.5274V10.3192H97.5143V8.72449H93.5274V7.03594H97.6081V5.39429L91.6512 5.39429V13.7433H97.6081V12.1485Z" fill="white"/>
<path d="M86.0696 13.7433H87.9458V7.03594H90.3848V5.39429H83.6775V7.03594H86.0696V13.7433Z" fill="white"/>
<path d="M88.5556 16.5105L85.5537 24.8126H87.4299L87.8989 23.4054H91.276L91.7451 24.8126H93.6212L90.6194 16.5574V16.5105H88.5556ZM90.7601 21.8107H88.3211L89.5406 18.1991L90.7601 21.8107Z" fill="white"/>
<path d="M62.1015 16.5105V21.4824C62.1015 23.6869 63.3679 24.9533 65.6193 24.9533C67.8238 24.9533 69.0902 23.6869 69.0902 21.4824V16.5105H67.3548V21.4355C67.3548 22.6081 66.745 23.3116 65.6193 23.3116C64.4936 23.3116 63.8839 22.655 63.8839 21.4355V16.5105H62.1015Z" fill="white"/>
<path d="M94.9346 16.5105V24.8126H99.9064V23.1709H96.6231V16.5105H94.9346Z" fill="white"/>
<path d="M74.4843 24.8126V18.1521H76.7357V16.5105H70.4974V18.1521H72.7488V24.8126H74.4843Z" fill="white"/>
<path d="M84.4749 19.1844C84.4749 19.0905 84.4749 18.9967 84.4749 18.9029C84.428 17.4958 83.2553 16.417 81.8482 16.5108H78.1897V24.8129H79.9251V21.8579H81.0508L82.5518 24.8129H84.5218L82.7863 21.6703C83.6306 21.4358 84.4749 20.6853 84.4749 19.1844ZM81.5668 20.2632H79.8782V18.1056H81.5668C82.1765 18.1056 82.6456 18.5746 82.6456 19.1844C82.6456 19.7941 82.1765 20.2632 81.5668 20.2632Z" fill="white"/>
<path d="M67.2142 8.02093L69.4656 13.6964V13.7433H70.3099L72.5613 8.02093L72.5613 13.7433H74.4374V5.39429H71.8577L69.8877 10.5069L67.9177 5.44119H65.338V13.7433H67.2142V8.02093Z" fill="white"/>
<path d="M14.7282 29.0808L14.5875 29.0339L12.0077 35.2253C11.4449 36.6324 12.1015 38.2272 13.5087 38.8369L13.6494 38.8838L16.2291 32.6925C16.792 31.2853 16.1353 29.6906 14.7282 29.0808Z" fill="white"/>
<path d="M61.3511 35.2724C61.3511 35.2255 61.3511 35.1786 61.3511 35.1317C61.3042 34.3812 60.6475 33.8184 59.8971 33.8653H58.0678V38.1805H58.959V36.6326H59.4749L60.413 38.1805H61.4918L60.413 36.5388C60.9759 36.3981 61.3511 35.8822 61.3511 35.2724ZM59.8033 35.8353H58.959V34.7096H59.8033C59.8502 34.7096 59.8502 34.7096 59.8971 34.7096C60.1785 34.7565 60.413 34.991 60.413 35.3193C60.3661 35.6007 60.0847 35.8353 59.8033 35.8353Z" fill="white"/>
<path d="M77.1578 33.8655V38.1807H78.049V33.8655H77.1578Z" fill="white"/>
<path d="M72.0453 38.1807H72.9365V36.3983H75.0002V35.6009H72.9365V34.7098H75.0471V33.8655H72.0453V38.1807Z" fill="white"/>
<path d="M11.1635 1.97031L11.0228 2.01721L13.5556 8.20858C13.837 8.86524 14.353 9.42809 15.0565 9.70952C15.3849 9.85023 15.7601 9.94404 16.1353 9.94404C16.5106 9.94404 16.8389 9.85023 17.1672 9.70952L17.3548 9.66261L14.822 3.47124C14.2123 2.06412 12.5706 1.40745 11.1635 1.97031Z" fill="white"/>
<path d="M63.2273 34.7098H64.4468V38.1807H65.3849V34.7098H66.6044V33.8655H63.2273V34.7098Z" fill="white"/>
<path d="M100 28.8933H46.717V29.9252H100V28.8933Z" fill="white"/>
<path d="M80.4411 38.1807H83.443V37.3364H81.3792V36.3983H83.3961V35.6009H81.3792V34.7098H83.443V33.8655H80.4411V38.1807Z" fill="white"/>
<path d="M52.8146 38.1807H55.8165V37.3364H53.7058V36.3983H55.7695V35.6009H53.7058V34.7098H55.8165V33.8655H52.8146V38.1807Z" fill="white"/>
<path d="M87.2892 33.8655H85.6944V38.1807H87.2892C88.5087 38.1807 89.4468 37.1957 89.4468 36.0231C89.4468 34.8505 88.4618 33.8655 87.2892 33.8655ZM87.2892 37.3833H86.6325V34.7098H87.2892C87.3361 34.7098 87.383 34.7098 87.4768 34.7098C88.1335 34.7567 88.6494 35.3664 88.6025 36.0231C88.6025 36.07 88.6025 36.1169 88.6025 36.1638C88.5556 36.8674 87.9458 37.3833 87.2892 37.3833Z" fill="white"/>
<path d="M69.6063 33.8655H68.7151V38.1807H69.6063V33.8655Z" fill="white"/>
<path d="M29.1278 25.1412L29.034 25.282L35.2723 27.9086C35.6006 28.0493 35.9758 28.0962 36.3042 28.0962C37.4299 28.0962 38.4149 27.4396 38.837 26.4077L38.8839 26.2669L32.6925 23.6872C31.3323 23.0774 29.7376 23.7341 29.1278 25.1412Z" fill="white"/>
<path d="M30.3474 28.2366C29.2686 27.1578 27.5331 27.1578 26.4543 28.2366L26.3136 28.3773L31.0509 33.1146C32.1297 34.1934 33.8652 34.1934 34.944 33.1146L35.0847 32.9739L30.3474 28.2366Z" fill="white"/>
<path d="M26.3604 31.6138C25.7976 30.2067 24.2028 29.55 22.7957 30.1129L22.6081 30.1598L25.094 36.3512C25.3755 37.0078 25.8914 37.5707 26.595 37.8521C26.9233 37.9928 27.2985 38.0866 27.6738 38.0866C28.049 38.0866 28.3773 37.9928 28.7057 37.8521L28.8933 37.8052L26.3604 31.6138Z" fill="white"/>
<path d="M18.6681 0.000244141L18.4805 0.000244141V6.70756C18.4805 8.2085 19.7 9.42801 21.2478 9.42801H21.4354L21.4354 2.72069C21.4354 1.21976 20.169 0.000244136 18.6681 0.000244141Z" fill="white"/>
<path d="M18.6681 30.3943H18.4805V37.1016C18.4805 38.6494 19.7 39.869 21.2478 39.869H21.4354V33.1616C21.4354 31.6607 20.169 30.3943 18.6681 30.3943Z" fill="white"/>
<path d="M30.4411 21.2481V21.3888H37.1484C38.6963 21.3888 39.9158 20.1224 39.9158 18.6214V18.4807H33.2085C31.6606 18.4807 30.4411 19.7471 30.4411 21.2481Z" fill="white"/>
<path d="M49.8595 13.9305C51.3604 13.9774 52.7207 13.18 53.4242 11.8667L53.4711 11.8198L51.8764 11.0693V11.1162C51.5012 11.8667 50.7507 12.2888 49.9064 12.2888C49.8595 12.2888 49.8126 12.2888 49.8126 12.2888C48.4055 12.195 47.3267 11.0224 47.4205 9.61528C47.4205 9.56838 47.4205 9.56838 47.4205 9.52147C47.4205 8.11435 48.5462 6.98864 49.9064 6.94174C50.7507 6.94174 51.5012 7.41078 51.8764 8.11435V8.16125L53.4711 7.36388V7.31697C52.7676 6.00365 51.3604 5.20628 49.9064 5.25318C49.8126 5.25318 49.7188 5.25318 49.625 5.25318C47.2798 5.30009 45.4505 7.22316 45.4974 9.56838C45.4974 9.66219 45.4974 9.756 45.4974 9.84981C45.5912 12.195 47.5612 14.0243 49.8595 13.9305Z" fill="white"/>
<path d="M47.702 19.4186L51.3136 24.8126H52.9552V16.5105H51.2198V21.7169L47.7489 16.5105H46.0134L45.9665 24.8126H47.702V19.4186Z" fill="white"/>
<path d="M48.9684 34.6629C49.3436 34.6629 49.7189 34.8505 49.9065 35.1788L50.0003 35.3195L50.7977 34.8974L50.7038 34.7567C50.3286 34.1469 49.672 33.8186 48.9684 33.8186C47.7489 33.8186 46.717 34.8036 46.717 36.07C46.717 37.3364 47.702 38.3214 48.9684 38.3214C49.672 38.3214 50.3286 37.9931 50.7038 37.3833L50.7977 37.2895L50.0003 36.8674L49.9065 37.0081C49.7189 37.3364 49.3436 37.524 48.9684 37.524C48.3586 37.4302 47.8427 36.9612 47.7958 36.3514C47.6551 35.5072 48.2179 34.8036 48.9684 34.6629Z" fill="white"/>
</svg>
