<svg width="71" height="66" viewBox="0 0 71 66" fill="none" xmlns="http://www.w3.org/2000/svg">
<path d="M64.676 0.698086L5.41409 1.01256C4.70019 1.01256 3.99479 1.16555 3.33189 1.44603C2.66899 1.72651 2.07408 2.13449 1.57265 2.64445C1.07122 3.15442 0.671779 3.75787 0.399818 4.42082C0.127858 5.08378 -0.00812361 5.79773 0.000375159 6.51168L0.221338 49.5867C0.221338 50.3006 0.374316 51.0061 0.646277 51.669C0.926736 52.332 1.32619 52.9269 1.83611 53.4284C2.34604 53.9299 2.94945 54.3293 3.61235 54.6013C4.27525 54.8733 4.98066 55.0093 5.70305 55.0008L27.2814 54.8903C29.4741 57.9161 33.0011 62.6928 34.9473 65.3786C35.0918 65.5826 35.2873 65.744 35.5167 65.8545C35.7462 65.965 35.9927 66.0075 36.2391 65.999C36.4856 65.982 36.732 65.9055 36.9445 65.778C37.157 65.6506 37.3354 65.4636 37.4629 65.2511L43.4461 54.8053L64.9735 54.6863C65.6874 54.6863 66.4012 54.5418 67.0556 54.2614C67.7185 53.9809 68.3135 53.5814 68.8149 53.0714C69.3163 52.5615 69.7158 51.958 69.9877 51.2951C70.2597 50.6321 70.3957 49.9181 70.3872 49.2042L70.1917 6.1122C70.1917 5.38975 70.0472 4.6758 69.7667 4.01285C69.4863 3.3499 69.0784 2.74644 68.5599 2.24498C68.05 1.74351 67.4381 1.34404 66.7667 1.08056C66.0953 0.817075 65.3814 0.681085 64.659 0.689584L64.676 0.698086Z" fill="#3300CC"/>
</svg>
