<svg width="26" height="26" viewBox="0 0 26 26" fill="none" xmlns="http://www.w3.org/2000/svg">
<path d="M25.8016 12.6643C25.8186 15.1886 25.0877 17.6619 23.6939 19.7613C22.3086 21.8691 20.3284 23.518 17.9997 24.4955C15.6796 25.4729 13.1129 25.7449 10.6398 25.2604C8.16665 24.7844 5.88049 23.5775 4.08725 21.8011C2.29401 20.0248 1.07016 17.7554 0.560239 15.2906C0.0588116 12.8173 0.296775 10.2504 1.24864 7.92161C2.2005 5.58427 3.83226 3.58691 5.92296 2.17601C8.01366 0.765106 10.4783 0.00866086 13.0024 0.000161454C16.3765 -0.0168374 19.623 1.30907 22.0196 3.68891C24.4163 6.06024 25.7761 9.29001 25.8016 12.6643Z" fill="#FE5F55"/>
</svg>
