<svg width="25" height="21" viewBox="0 0 25 21" fill="none" xmlns="http://www.w3.org/2000/svg">
<path d="M22.5 0.5H2.5C1.125 0.5 0 1.625 0 3V18C0 19.375 1.125 20.5 2.5 20.5H22.5C23.875 20.5 25 19.375 25 18V3C25 1.625 23.875 0.5 22.5 0.5ZM2.5 1.75H22.5C22.9381 1.75 23.3231 1.9775 23.5462 2.32L12.5 13.3663L1.45375 2.32C1.67688 1.9775 2.06188 1.75 2.5 1.75ZM22.5 19.25H2.5C1.81062 19.25 1.25 18.6894 1.25 18V3.88375L12.5 15.1337L23.75 3.88375V18C23.75 18.6894 23.1894 19.25 22.5 19.25Z" fill="#262626"/>
</svg>
